Coordinates
version=1
nRows=14
nColumns=24
inDegrees=yes

Units are S.I. units (second, meters, Newtons, ...)
Angles are in degrees.

endheader
time	pelvis_tilt	pelvis_list	pelvis_rotation	pelvis_tx	pelvis_ty	pelvis_tz	hip_flexion_r	hip_adduction_r	hip_rotation_r	knee_angle_r	ankle_angle_r	subtalar_angle_r	mtp_angle_r	hip_flexion_l	hip_adduction_l	hip_rotation_l	knee_angle_l	ankle_angle_l	subtalar_angle_l	mtp_angle_l	lumbar_extension	lumbar_bending	lumbar_rotation
      2.27500000	      8.02014575	     -6.20009303	     -9.87452786	      1.03520500	      0.98446164	      0.01984443	    -19.83456788	     -3.81876218	     -6.71158883	    -35.99382800	    -13.49476662	     10.13341658	     31.13632950	     14.16156186	     -6.93915830	    -24.53132266	    -21.44953151	     -7.81707822	    -11.32973358	     12.51306436	    -19.56583693	     12.14628978	     51.28540364
      2.28000000	      8.04635264	     -6.21696925	     -9.52001880	      1.04201613	      0.98549265	      0.01867101	    -19.18866258	     -3.80364286	     -6.64573341	    -37.35412486	    -14.38936099	      9.65284774	     28.95878713	     13.82676355	     -6.74167747	    -24.19364018	    -21.53405790	     -7.47509187	    -11.33476169	     11.91647798	    -19.47665520	     12.24828197	     50.98647443
      2.28500000	      8.07975902	     -6.25682197	     -9.15866582	      1.04879339	      0.98654580	      0.01750896	    -18.53403121	     -3.74768937	     -6.54957207	    -38.69673119	    -15.10916368	      9.21573916	     26.36880272	     13.48129440	     -6.57170216	    -23.84285670	    -21.62468923	     -7.07736527	    -11.35372269	     11.29835941	    -19.39179907	     12.37535309	     50.63670488
      2.29000000	      8.11616222	     -6.28907119	     -8.80067115	      1.05551269	      0.98763346	      0.01635611	    -17.85062974	     -3.69192753	     -6.47142185	    -40.04647396	    -15.64195611	      8.72011641	     23.71371596	     13.11249445	     -6.39237641	    -23.47491448	    -21.67035623	     -6.71915112	    -11.33243623	     10.64710507	    -19.31992837	     12.49757789	     50.33193152
      2.29500000	      8.14323604	     -6.35072673	     -8.44676716	      1.06220414	      0.98872696	      0.01523265	    -17.14520939	     -3.58947708	     -6.36505436	    -41.36709411	    -15.98495628	      8.27834346	     20.82557774	     12.75100668	     -6.25310192	    -23.09805836	    -21.72581833	     -6.32563756	    -11.34890660	     10.03296620	    -19.23769385	     12.65334369	     50.00706110
      2.30000000	      8.16558901	     -6.41357194	     -8.08680292	      1.06882647	      0.98980759	      0.01411952	    -16.40850780	     -3.47307893	     -6.28006752	    -42.68734101	    -16.11242612	      7.80927147	     18.04459292	     12.38752931	     -6.11898696	    -22.70348930	    -21.75769884	     -5.94122179	    -11.32971602	      9.42155417	    -19.15602771	     12.81169853	     49.67026228
      2.30500000	      8.20572386	     -6.48080781	     -7.72618253	      1.07540507	      0.99095117	      0.01301898	    -15.67673436	     -3.34608093	     -6.21825015	    -43.97280804	    -16.06899570	      7.32602442	     15.29085303	     11.98997480	     -5.99022046	    -22.31538813	    -21.75944759	     -5.59293032	    -11.32041532	      8.85303945	    -19.10034175	     12.97842676	     49.37116055
      2.31000000	      8.24815083	     -6.56102226	     -7.37365223	      1.08194909	      0.99209421	      0.01195591	    -14.93434919	     -3.19909972	     -6.16284191	    -45.22409058	    -15.84994188	      6.84150158	     12.77657093	     11.57799454	     -5.88256090	    -21.92915368	    -21.74532692	     -5.22112756	    -11.28851011	      8.25920009	    -19.04478725	     13.15403228	     49.05105402
      2.31500000	      8.27760008	     -6.66334294	     -7.03454484	      1.08842455	      0.99323121	      0.01092419	    -14.15855503	     -3.02362022	     -6.10490570	    -46.44344265	    -15.50209789	      6.39361696	     10.39417876	     11.17526228	     -5.81072278	    -21.55941067	    -21.73039551	     -4.84580002	    -11.26907256	      7.70246962	    -18.99605298	     13.35785060	     48.75690077
      2.32000000	      8.33093231	     -6.74900438	     -6.67568234	      1.09490680	      0.99443198	      0.00987704	    -13.40867590	     -2.86677382	     -6.13117935	    -47.59509028	    -15.05701792	      5.89067967	      8.43550751	     10.72115192	     -5.71342934	    -21.16992947	    -21.64565850	     -4.55649283	    -11.21771330	      7.26787041	    -18.95784223	     13.54725198	     48.45547270
      2.32500000	      8.33878592	     -6.86377437	     -6.34790038	      1.10129984	      0.99555677	      0.00889676	    -12.59619344	     -2.67355296	     -6.13135210	    -48.67683345	    -14.73085886	      5.35458753	      8.23265703	     10.31863583	     -5.67050791	    -20.81876594	    -21.57435107	     -4.26654970	    -11.20916294	      7.23907283	    -18.88791077	     13.76760341	     48.16553538
      2.33000000	      8.40401438	     -6.96036901	     -6.02546201	      1.10770098	      0.99676685	      0.00792983	    -11.82633670	     -2.51842502	     -6.19359341	    -49.76683389	    -13.82092825	      5.05066799	      4.90369646	      9.84108074	     -5.60842963	    -20.50163114	    -21.49540506	     -3.85735590	    -11.10010782	      6.21375575	    -18.88065687	     13.96170683	     47.90289469
      2.33500000	      8.43143266	     -7.07966544	     -5.70205680	      1.11404151	      0.99793373	      0.00699967	    -11.02159000	     -2.33123730	     -6.28658207	    -50.73400415	    -13.28351439	      4.58241587	      4.82437283	      9.39254047	     -5.58290744	    -20.18397206	    -21.37432100	     -3.61308438	    -11.03453484	      6.21868518	    -18.84187655	     14.18690072	     47.65685674
      2.34000000	      8.49365256	     -7.19189902	     -5.39070704	      1.12034594	      0.99913838	      0.00609584	    -10.23881484	     -2.16479587	     -6.41419989	    -51.67700768	    -12.34537287	      4.28385778	      2.47097396	      8.89807954	     -5.55521834	    -19.90673607	    -21.24640593	     -3.26628503	    -10.90811766	      5.46160631	    -18.84000728	     14.39758470	     47.41247216
